<svg aria-hidden="true" style="position: absolute; width: 0; height: 0; overflow: hidden;" version="1.1" xmlns="http://www.w3.org/2000/svg" xmlns:xlink="http://www.w3.org/1999/xlink">
<defs>
<symbol id="icon-chevron-left" viewBox="0 0 14 14">
<path d="M8.716 3.161c0.312 0.305 0.337 0.73 0 1.103l-2.623 2.736 2.623 2.736c0.337 0.373 0.312 0.799 0 1.102-0.311 0.305-0.838 0.286-1.13 0-0.293-0.284-3.151-3.287-3.151-3.287-0.156-0.152-0.234-0.351-0.234-0.551s0.078-0.399 0.234-0.552c0 0 2.859-3.001 3.151-3.286s0.819-0.305 1.13 0z"></path>
</symbol>
<symbol id="icon-chevron-right" viewBox="0 0 14 14">
<path d="M6.414 3.161c0.293 0.286 3.151 3.286 3.151 3.286 0.156 0.153 0.235 0.353 0.235 0.552s-0.078 0.399-0.235 0.551c0 0-2.859 3.002-3.151 3.287-0.293 0.286-0.819 0.305-1.13 0-0.312-0.304-0.337-0.729 0-1.102l2.623-2.736-2.623-2.736c-0.337-0.373-0.312-0.799 0-1.103s0.838-0.286 1.13 0z"></path>
</symbol>
<symbol id="icon-star-empty" viewBox="0 0 14 14">
<path d="M14 5.428l-4.837-0.703-2.163-4.383-2.163 4.383-4.837 0.703 3.5 3.412-0.826 4.817 4.326-2.274 4.326 2.274-0.826-4.817 3.5-3.412zM7 10.302l-3.055 1.606 0.583-3.402-2.472-2.409 3.416-0.496 1.528-3.095 1.528 3.095 3.416 0.496-2.472 2.409 0.583 3.402-3.055-1.606z"></path>
</symbol>
<symbol id="icon-star-full" viewBox="0 0 14 14">
<path d="M14 5.428l-4.837-0.703-2.163-4.383-2.163 4.383-4.837 0.703 3.5 3.412-0.826 4.817 4.326-2.274 4.326 2.274-0.826-4.817 3.5-3.412z"></path>
</symbol>
</defs>
</svg>
